<svg width="135" height="13" fill="none" xmlns="http://www.w3.org/2000/svg"><path d="M7.592 4.354a.418.418 0 01-.28-.105.418.418 0 01-.105-.28v-.123a.635.635 0 00-.21-.49.635.635 0 00-.49-.21h-3.41a.635.635 0 00-.49.21.663.663 0 00-.193.49v5.808c0 .198.064.367.193.507a.663.663 0 00.49.193h3.41a.691.691 0 00.7-.7V9.53c0-.104.035-.192.105-.262a.385.385 0 01.28-.122H9.22c.105 0 .193.04.262.122.082.07.123.158.123.262v.123c0 .431-.082.834-.245 1.207a3.164 3.164 0 01-1.644 1.644 2.978 2.978 0 01-1.207.245H3.096a3.06 3.06 0 01-2.186-.91 3.165 3.165 0 01-.665-.98A2.978 2.978 0 010 9.655V3.846c0-.431.082-.833.245-1.207.163-.373.385-.7.665-.98s.606-.5.98-.664A3.06 3.06 0 013.095.75h3.412c.431 0 .833.082 1.207.245a3.165 3.165 0 011.644 1.644c.163.374.245.776.245 1.207v.123c0 .105-.04.198-.123.28a.356.356 0 01-.262.105H7.592zM25.125 12.4c.047.094.047.175 0 .245-.046.07-.122.105-.227.105h-1.872a.565.565 0 01-.315-.105.694.694 0 01-.21-.245L20.49 7.957h-2.38v4.408c0 .105-.04.198-.122.28a.356.356 0 01-.262.105H16.08a.418.418 0 01-.28-.105.418.418 0 01-.105-.28V1.135c0-.105.035-.192.105-.262a.385.385 0 01.28-.123h6.123c.431 0 .834.082 1.207.245a3.166 3.166 0 011.644 1.644c.164.374.245.776.245 1.207v1.015c0 .35-.058.688-.175 1.014a3.123 3.123 0 01-.454.875 3.005 3.005 0 01-.718.665 2.988 2.988 0 01-.892.42l2.064 4.565zm-2.921-6.84a.691.691 0 00.7-.7V3.847a.635.635 0 00-.21-.49.635.635 0 00-.49-.21H18.11v2.415h4.094zM37.9.768c.432 0 .834.081 1.207.245a3.165 3.165 0 011.645 1.644c.163.373.245.77.245 1.19V9.67c0 .42-.082.817-.245 1.19a3.164 3.164 0 01-1.644 1.644 2.978 2.978 0 01-1.208.245h-3.41c-.431 0-.834-.082-1.207-.245a3.164 3.164 0 01-1.644-1.644 2.935 2.935 0 01-.245-1.19V3.846c0-.42.081-.816.245-1.19a3.164 3.164 0 011.644-1.643A2.979 2.979 0 0134.49.768h3.41zm.7 3.078a.635.635 0 00-.21-.49.663.663 0 00-.49-.192h-3.41a.724.724 0 00-.507.193.663.663 0 00-.193.49V9.67a.66.66 0 00.193.49c.14.129.309.193.507.193h3.41a.663.663 0 00.49-.193.635.635 0 00.21-.49V3.846zm16.064.508a.418.418 0 01-.28-.105.418.418 0 01-.105-.28v-.123a.663.663 0 00-.193-.49.635.635 0 00-.49-.21h-3.428c-.187 0-.35.07-.49.21a.663.663 0 00-.192.49v1.015c0 .198.064.367.192.507.14.128.303.193.49.193h3.429c.42 0 .816.081 1.19.245.372.163.699.384.979.664s.501.607.665.98c.163.373.244.77.244 1.19v1.014c0 .431-.081.834-.244 1.207-.164.373-.385.7-.665.98s-.607.501-.98.664a2.94 2.94 0 01-1.19.245h-3.428c-.42 0-.816-.082-1.19-.245a3.164 3.164 0 01-1.644-1.644 2.977 2.977 0 01-.245-1.207V9.53c0-.104.035-.192.105-.262a.386.386 0 01.28-.122H49.1a.33.33 0 01.262.122c.082.07.123.158.123.262v.123c0 .198.064.367.192.507a.7.7 0 00.49.193h3.429a.664.664 0 00.49-.193.724.724 0 00.192-.507V8.639a.663.663 0 00-.193-.49.664.664 0 00-.49-.192h-3.428c-.42 0-.816-.082-1.19-.245a3.166 3.166 0 01-.98-.664 3.059 3.059 0 01-.91-2.187V3.846c.001-.431.083-.833.246-1.207.163-.373.385-.7.665-.98s.606-.5.98-.664A2.936 2.936 0 0150.167.75h3.429c.42 0 .816.082 1.19.245a3.166 3.166 0 011.644 1.644c.163.374.244.776.244 1.207v.123a.418.418 0 01-.104.28.356.356 0 01-.263.105h-1.644zm15.696 0a.418.418 0 01-.28-.105.418.418 0 01-.105-.28v-.123a.663.663 0 00-.192-.49.635.635 0 00-.49-.21h-3.429c-.186 0-.35.07-.49.21a.663.663 0 00-.192.49v1.015c0 .198.064.367.192.507.14.128.304.193.49.193h3.429c.42 0 .816.081 1.19.245.373.163.7.384.98.664.279.28.5.607.664.98.163.373.245.77.245 1.19v1.014c0 .431-.082.834-.245 1.207a3.164 3.164 0 01-1.645 1.644 2.94 2.94 0 01-1.19.245h-3.428c-.42 0-.816-.082-1.19-.245a3.164 3.164 0 01-1.644-1.644 2.977 2.977 0 01-.245-1.207V9.53c0-.104.035-.192.105-.262a.385.385 0 01.28-.122h1.627c.105 0 .193.04.263.122.081.07.122.158.122.262v.123c0 .198.064.367.192.507.14.129.304.193.49.193h3.429a.664.664 0 00.49-.193.724.724 0 00.192-.507V8.639a.663.663 0 00-.192-.49.664.664 0 00-.49-.192h-3.429c-.42 0-.816-.082-1.19-.245a3.165 3.165 0 01-1.644-1.644 3.059 3.059 0 01-.245-1.207V3.846c0-.431.082-.833.245-1.207A3.166 3.166 0 0164.674.995c.374-.163.77-.245 1.19-.245h3.429c.42 0 .816.082 1.19.245a3.164 3.164 0 011.644 1.644c.163.374.245.776.245 1.207v.123a.418.418 0 01-.105.28.356.356 0 01-.263.105H70.36zM84.99.75c.419 0 .816.082 1.189.245a3.166 3.166 0 011.644 1.644c.163.374.245.776.245 1.207v1.015c0 .361-.058.7-.175 1.014a3.52 3.52 0 01-.472.875c.198.268.355.56.472.875.117.315.175.653.175 1.014v1.015c0 .431-.082.834-.245 1.207a3.164 3.164 0 01-1.644 1.644c-.373.164-.77.245-1.19.245h-6.14a.356.356 0 01-.262-.105.418.418 0 01-.105-.28V1.135c0-.105.035-.192.105-.262a.331.331 0 01.262-.123h6.14zm-4.112 4.793h4.111a.642.642 0 00.472-.192.635.635 0 00.21-.49V3.846a.635.635 0 00-.21-.49.616.616 0 00-.472-.21h-4.11v2.397zm4.793 3.096a.635.635 0 00-.21-.49.642.642 0 00-.472-.192h-4.11v2.397h4.11a.642.642 0 00.472-.193.69.69 0 00.21-.507V8.639zM100.598.75c.105 0 .205.035.298.105a.52.52 0 01.21.245l2.519 6.262c.035.094.064.216.087.368.035.14.053.262.053.367v4.268a.385.385 0 01-.123.28.355.355 0 01-.262.105h-1.644a.417.417 0 01-.28-.105.418.418 0 01-.105-.28v-2.011h-4.793v2.011a.385.385 0 01-.123.28.356.356 0 01-.262.105h-1.627a.418.418 0 01-.28-.105.418.418 0 01-.105-.28V8.097c0-.105.011-.227.035-.367.035-.152.07-.274.105-.368L96.802 1.1a.694.694 0 01.21-.245.564.564 0 01.315-.105h3.271zm-3.953 7.207h4.618l-1.924-4.81h-.77l-1.924 4.81zm22.291 4.793h-8.187a.42.42 0 01-.28-.105.417.417 0 01-.104-.28V1.135c0-.105.034-.192.104-.262a.386.386 0 01.28-.123h1.627c.105 0 .193.04.263.123.081.07.122.157.122.262v9.219h6.175c.105 0 .193.04.263.122.07.07.105.157.105.262v1.627a.418.418 0 01-.105.28.358.358 0 01-.263.105zm15.697 0h-8.187a.417.417 0 01-.28-.105.418.418 0 01-.105-.28V1.135c0-.105.035-.192.105-.262a.384.384 0 01.28-.123h1.627a.33.33 0 01.262.123.33.33 0 01.122.262v9.219h6.176a.33.33 0 01.262.122c.07.07.105.157.105.262v1.627a.418.418 0 01-.105.28.355.355 0 01-.262.105z" fill="#222"/></svg>