<svg viewBox="0 0 135 32" xmlns="http://www.w3.org/2000/svg" xmlns:xlink="http://www.w3.org/1999/xlink"><style>:root&gt;svg{display:none}:root&gt;svg:target{display:block}</style><svg fill="none" viewBox="0 0 32 32" id="sprite--apple" xmlns="http://www.w3.org/2000/svg"><path fill-rule="evenodd" clip-rule="evenodd" d="M19.076 7.832c.84-1.014 1.404-2.427 1.25-3.832-1.207.049-2.67.805-3.535 1.819-.777.898-1.457 2.335-1.273 3.712 1.346.105 2.723-.684 3.56-1.699h-.002zM22.1 16.75c.034 3.632 3.186 4.841 3.22 4.857-.025.085-.502 1.722-1.66 3.413-1 1.462-2.038 2.92-3.674 2.95-1.607.028-2.123-.954-3.962-.954-1.836 0-2.41.923-3.932.982-1.578.06-2.78-1.58-3.79-3.037-2.06-2.98-3.635-8.42-1.52-12.092 1.05-1.824 2.927-2.979 4.965-3.008 1.55-.03 3.013 1.043 3.96 1.043.948 0 2.727-1.29 4.596-1.1.782.032 2.979.315 4.39 2.38-.114.07-2.622 1.53-2.595 4.566" fill="#fff"/></svg><svg fill="none" viewBox="0 0 84 30" id="sprite--apple-text" xmlns="http://www.w3.org/2000/svg"><path d="M11.834 25.96H9.442l-1.31-4.041H3.577l-1.248 4.04H0l4.513-13.756H7.3l4.534 13.756zm-4.097-5.737l-1.185-3.591c-.125-.367-.36-1.232-.707-2.592h-.042c-.138.585-.36 1.45-.666 2.591l-1.164 3.592h3.764zm15.703.654c0 1.687-.465 3.02-1.395 4-.832.87-1.865 1.306-3.098 1.306-1.332 0-2.288-.47-2.87-1.408h-.043V30h-2.246V19.305c0-1.06-.028-2.15-.083-3.265h1.975l.126 1.572h.042c.749-1.185 1.885-1.776 3.41-1.776 1.193 0 2.188.462 2.985 1.387.798.926 1.196 2.144 1.196 3.654zm-2.289.08c0-.965-.221-1.76-.666-2.387-.485-.653-1.137-.98-1.954-.98-.555 0-1.058.182-1.508.54a2.5 2.5 0 00-.884 1.42c-.07.273-.104.496-.104.672v1.653c0 .722.226 1.33.676 1.828.451.497 1.037.745 1.757.745.846 0 1.505-.32 1.975-.959.472-.64.708-1.483.708-2.531zm13.914-.08c0 1.687-.465 3.02-1.395 4-.831.87-1.864 1.306-3.098 1.306-1.331 0-2.288-.47-2.87-1.408h-.041V30h-2.246V19.305c0-1.06-.028-2.15-.083-3.265h1.975l.125 1.572h.042c.748-1.185 1.885-1.776 3.411-1.776 1.191 0 2.187.462 2.985 1.387.796.926 1.195 2.144 1.195 3.654zm-2.288.08c0-.965-.222-1.76-.667-2.387-.485-.653-1.135-.98-1.954-.98-.555 0-1.057.182-1.508.54a2.502 2.502 0 00-.883 1.42 2.889 2.889 0 00-.104.672v1.653c0 .722.225 1.33.674 1.828.45.496 1.036.745 1.759.745.846 0 1.504-.32 1.975-.959.472-.64.708-1.483.708-2.531zM48.063 22.1c0 1.17-.414 2.123-1.245 2.858-.913.803-2.185 1.204-3.818 1.204-1.509 0-2.718-.285-3.633-.857l.52-1.837a6.244 6.244 0 003.246.879c.846 0 1.505-.188 1.978-.562.47-.375.705-.877.705-1.503a1.9 1.9 0 00-.582-1.41c-.387-.382-1.032-.736-1.934-1.064-2.454-.898-3.68-2.214-3.68-3.944 0-1.131.43-2.058 1.29-2.78.857-.722 2.001-1.083 3.432-1.083 1.275 0 2.335.218 3.18.653l-.56 1.797c-.79-.422-1.684-.633-2.684-.633-.79 0-1.407.191-1.85.572a1.62 1.62 0 00-.56 1.245c0 .544.213.994.643 1.347.374.327 1.053.68 2.04 1.062 1.205.476 2.091 1.033 2.661 1.672.568.637.851 1.434.851 2.385zm7.425-4.407h-2.475v4.816c0 1.225.436 1.837 1.31 1.837.401 0 .734-.034.998-.102l.062 1.673c-.443.162-1.025.244-1.747.244-.887 0-1.58-.266-2.08-.796-.498-.531-.749-1.422-.749-2.674v-5h-1.475v-1.654h1.475v-1.816l2.206-.653v2.47h2.475v1.655zm11.169 3.224c0 1.525-.445 2.777-1.332 3.756-.93 1.007-2.164 1.51-3.703 1.51-1.483 0-2.664-.483-3.545-1.448-.88-.966-1.32-2.184-1.32-3.653 0-1.537.452-2.796 1.361-3.775.907-.98 2.131-1.47 3.67-1.47 1.483 0 2.677.483 3.577 1.45.862.937 1.292 2.147 1.292 3.63zm-2.33.072c0-.915-.2-1.7-.603-2.354-.47-.792-1.144-1.187-2.016-1.187-.903 0-1.588.396-2.06 1.187-.403.655-.602 1.452-.602 2.395 0 .915.2 1.7.603 2.353.485.791 1.164 1.186 2.039 1.186.857 0 1.53-.403 2.016-1.207.414-.667.623-1.46.623-2.373zm9.629-3.011a3.974 3.974 0 00-.708-.061c-.79 0-1.4.292-1.83.878-.374.517-.562 1.17-.562 1.959v5.204h-2.244l.02-6.795c0-1.143-.028-2.184-.084-3.122h1.956l.083 1.897h.062c.237-.652.61-1.177 1.123-1.57a2.75 2.75 0 011.623-.532c.207 0 .395.014.561.04v2.102zM84 20.53c0 .394-.026.727-.082 1H77.18c.026.98.352 1.729.977 2.245.568.462 1.302.694 2.204.694.997 0 1.907-.156 2.726-.47l.352 1.53c-.957.41-2.086.613-3.389.613-1.567 0-2.798-.452-3.693-1.357-.893-.904-1.34-2.119-1.34-3.642 0-1.496.415-2.742 1.248-3.735.873-1.06 2.051-1.59 3.534-1.59 1.457 0 2.56.53 3.309 1.59.593.842.891 1.884.891 3.122zm-2.141-.572c.014-.653-.132-1.218-.436-1.694-.39-.613-.986-.919-1.79-.919-.734 0-1.331.299-1.788.898-.374.477-.596 1.048-.664 1.714h4.678v.001zM7.709 3.461c0 1.18-.36 2.068-1.078 2.665-.666.55-1.611.825-2.836.825-.607 0-1.127-.026-1.562-.078V.428A11.74 11.74 0 014.073.29c1.166 0 2.045.25 2.638.749.665.564.998 1.371.998 2.421zm-1.126.03c0-.765-.206-1.352-.618-1.76-.411-.408-1.012-.613-1.804-.613-.336 0-.623.022-.86.068v4.9c.131.02.372.03.721.03.818 0 1.448-.224 1.893-.671.444-.447.668-1.098.668-1.954zm7.096 1c0 .727-.211 1.322-.633 1.79-.442.48-1.028.719-1.76.719-.705 0-1.266-.23-1.685-.69-.418-.46-.627-1.041-.627-1.74 0-.732.215-1.333.647-1.799.432-.466 1.013-.7 1.745-.7.705 0 1.271.23 1.7.69.408.447.613 1.025.613 1.73zm-1.108.034c0-.436-.095-.81-.286-1.121-.224-.377-.543-.566-.958-.566-.429 0-.755.189-.98.566-.19.311-.285.691-.285 1.14 0 .436.095.81.286 1.122.231.377.553.565.969.565.408 0 .727-.191.958-.575.197-.318.296-.695.296-1.13zm9.113-2.357L20.18 6.893h-.978L18.58 4.84a15.117 15.117 0 01-.386-1.526h-.02a10.79 10.79 0 01-.386 1.526l-.661 2.052h-.99l-1.413-4.725h1.098l.543 2.246c.131.531.24 1.037.326 1.516h.02c.079-.394.21-.898.396-1.506l.681-2.255h.87l.654 2.207c.158.538.286 1.056.385 1.555h.03a14.66 14.66 0 01.325-1.555l.583-2.207h1.049v-.001zm5.536 4.725h-1.068V4.187c0-.834-.322-1.251-.968-1.251a.97.97 0 00-.771.343c-.197.23-.297.5-.297.81v2.803h-1.068V3.518c0-.415-.013-.865-.039-1.352h.939l.05.739h.03c.124-.23.31-.42.553-.57a1.82 1.82 0 01.968-.266c.448 0 .82.142 1.117.428.37.35.554.872.554 1.565v2.83zm2.944 0h-1.066V0h1.066v6.893zm6.287-2.402c0 .727-.21 1.322-.632 1.79-.443.48-1.03.719-1.76.719-.706 0-1.268-.23-1.685-.69-.418-.46-.627-1.041-.627-1.74 0-.732.215-1.333.647-1.799.432-.466 1.013-.7 1.743-.7.706 0 1.272.23 1.702.69.408.447.612 1.025.612 1.73zm-1.108.034c0-.436-.096-.81-.287-1.121-.223-.377-.543-.566-.956-.566-.43 0-.756.189-.98.566-.191.311-.286.691-.286 1.14 0 .436.096.81.286 1.122.232.377.554.565.97.565.407 0 .726-.191.956-.575.199-.318.297-.695.297-1.13zm6.277 2.368h-.96l-.079-.545h-.03c-.327.434-.795.652-1.402.652-.454 0-.82-.143-1.097-.428a1.33 1.33 0 01-.376-.962c0-.578.245-1.018.737-1.322.491-.305 1.182-.454 2.071-.447v-.088c0-.623-.332-.934-.997-.934-.474 0-.892.118-1.252.35l-.217-.69c.446-.271.997-.407 1.647-.407 1.255 0 1.885.651 1.885 1.954v1.74c0 .472.024.848.07 1.127zm-1.11-1.624V4.54c-1.177-.02-1.766.298-1.766.953 0 .246.067.43.205.554a.754.754 0 00.522.184c.234 0 .453-.073.653-.218a.894.894 0 00.387-.744zm7.177 1.624h-.947l-.05-.759h-.03c-.302.577-.818.866-1.542.866a1.82 1.82 0 01-1.443-.67c-.382-.448-.573-1.028-.573-1.74 0-.765.207-1.385.623-1.858a1.928 1.928 0 011.482-.661c.645 0 1.097.213 1.353.641h.02V0h1.07v5.62c0 .46.012.884.037 1.273zM46.581 4.9v-.788a1.193 1.193 0 00-.416-.967 1.06 1.06 0 00-.714-.257c-.399 0-.71.155-.94.467-.227.311-.342.71-.342 1.195 0 .467.109.846.328 1.138.231.31.543.466.933.466.35 0 .631-.13.844-.389.206-.24.307-.528.307-.865zm10.239-.409c0 .727-.21 1.322-.633 1.79-.442.48-1.027.719-1.76.719-.703 0-1.265-.23-1.685-.69-.417-.46-.626-1.041-.626-1.74 0-.732.215-1.333.647-1.799.432-.466 1.013-.7 1.745-.7.704 0 1.272.23 1.7.69.407.447.612 1.025.612 1.73zm-1.106.034c0-.436-.096-.81-.287-1.121-.225-.377-.543-.566-.959-.566-.428 0-.754.189-.979.566-.191.311-.286.691-.286 1.14 0 .436.096.81.286 1.122.232.377.554.565.97.565.407 0 .728-.191.958-.575.197-.318.297-.695.297-1.13zm6.848 2.368h-1.067V4.187c0-.834-.322-1.251-.969-1.251a.967.967 0 00-.77.343c-.198.23-.297.5-.297.81v2.803H58.39V3.518c0-.415-.012-.865-.037-1.352h.937l.05.739h.03c.125-.23.31-.42.553-.57a1.83 1.83 0 01.969-.266c.447 0 .82.142 1.117.428.37.35.553.872.553 1.565v2.83zm7.187-3.938h-1.176V5.25c0 .583.209.875.622.875.192 0 .35-.016.476-.05l.028.798c-.211.078-.488.117-.83.117-.421 0-.75-.126-.987-.379-.239-.252-.357-.677-.357-1.274V2.955h-.702v-.787h.702v-.866l1.047-.31v1.175h1.176v.788zm5.652 3.938h-1.068V4.207c0-.847-.322-1.271-.967-1.271-.496 0-.834.245-1.02.736a1.3 1.3 0 00-.05.378v2.842H71.23V0h1.067v2.848h.02c.336-.519.818-.777 1.443-.777.442 0 .808.142 1.098.428.362.356.543.885.543 1.584v2.81zm5.832-2.586c0 .188-.014.347-.04.476h-3.202c.014.467.167.823.463 1.07.271.22.62.33 1.049.33a3.59 3.59 0 001.295-.223l.167.73c-.456.194-.992.29-1.612.29-.744 0-1.33-.215-1.754-.646-.426-.43-.636-1.009-.636-1.735 0-.712.196-1.306.593-1.779.413-.505.973-.757 1.679-.757.69 0 1.215.252 1.57.757.286.401.428.897.428 1.487zm-1.019-.272a1.397 1.397 0 00-.207-.807c-.185-.291-.468-.438-.85-.438a1.02 1.02 0 00-.85.428c-.177.228-.282.5-.316.817h2.223z" fill="#fff"/></svg><svg fill="none" viewBox="0 0 12 8" id="sprite--arrow-down" xmlns="http://www.w3.org/2000/svg"><path d="M11 1.25l-5 5.5-5-5.5"/></svg><svg fill="none" viewBox="0 0 13 13" id="sprite--arrow-small" xmlns="http://www.w3.org/2000/svg"><path d="M9.125 6L6.5 3.25 3.875 6M6.5 9.75v-6" stroke="#86E3CE" stroke-linecap="round" stroke-linejoin="round"/></svg><svg fill="none" viewBox="0 0 22 28" id="sprite--bag" xmlns="http://www.w3.org/2000/svg"><path d="M11.312 0a4.404 4.404 0 00-3.107 1.282 4.365 4.365 0 00-1.288 3.093v.077a10.535 10.535 0 00-4.482 3.876A10.467 10.467 0 00.765 14v8.75c0 1.392.555 2.728 1.544 3.712A5.286 5.286 0 006.04 28h5.725a9.63 9.63 0 01-1.155-1.75H6.04a3.524 3.524 0 01-2.487-1.025 3.492 3.492 0 01-1.03-2.475v-3.5h3.516v2.625a.873.873 0 00.88.875.881.881 0 00.878-.875V19.25h2.122c.174-.61.404-1.195.69-1.75H2.524V14a8.728 8.728 0 012.27-5.878 8.819 8.819 0 0111.748-1.163 8.746 8.746 0 013.39 5.317c.63.044 1.243.15 1.834.31a10.483 10.483 0 00-1.98-4.84 10.549 10.549 0 00-4.078-3.294v-.077c0-1.16-.463-2.273-1.287-3.093A4.405 4.405 0 0011.312 0zm0 3.5c-.89 0-1.753.11-2.577.315a2.623 2.623 0 01.922-1.487 2.644 2.644 0 013.31 0c.47.376.795.901.922 1.487a10.691 10.691 0 00-2.577-.315z" fill="#222"/><path d="M13.662 14a9.651 9.651 0 012.716-1.326c.134-.29.208-.611.208-.949 0-.789-.315-1.546-.876-2.104a2.996 2.996 0 00-2.113-.87h-4.57c-.793 0-1.553.313-2.113.87a2.968 2.968 0 00-.876 2.104 2.266 2.266 0 00.67 1.609A2.286 2.286 0 008.323 14h5.34zm-5.866-2.275a1.225 1.225 0 011.23-1.225h4.571c.327 0 .64.13.87.359.231.23.36.541.36.866a.524.524 0 01-.527.525H8.323a.528.528 0 01-.527-.525z" fill="#222"/></svg><svg viewBox="0 0 18 24" id="sprite--bag-full" xmlns="http://www.w3.org/2000/svg"><path d="M7.18 7.8a2.38 2.38 0 00-2.38 2.38A1.82 1.82 0 006.62 12h4.76a1.82 1.82 0 001.82-1.82 2.38 2.38 0 00-2.38-2.38H7.18zm-.98 2.38a.98.98 0 01.98-.98h3.64a.98.98 0 01.98.98.42.42 0 01-.42.42H6.62a.42.42 0 01-.42-.42z"/><path d="M9 .8a3.5 3.5 0 00-3.5 3.5v.062A8.401 8.401 0 00.6 12v7a4.2 4.2 0 004.2 4.2h8.4a4.2 4.2 0 004.2-4.2v-7a8.401 8.401 0 00-4.9-7.638V4.3A3.5 3.5 0 009 .8zm7 14H2V12a7 7 0 1114 0v2.8zM4.8 18.3a.7.7 0 101.4 0v-2.1H16V19a2.8 2.8 0 01-2.8 2.8H4.8A2.8 2.8 0 012 19v-2.8h2.8v2.1zM9 3.6a8.47 8.47 0 00-2.052.252 2.1 2.1 0 014.104 0A8.478 8.478 0 009 3.6z"/></svg><svg fill="none" viewBox="0 0 24 23" id="sprite--burger" xmlns="http://www.w3.org/2000/svg"><rect width="24" height="3" rx=".5" fill="#5A60E7"/><rect y="10" width="24" height="3" rx=".5" fill="#5A60E7"/><rect y="20" width="13" height="3" rx=".5" fill="#5A60E7"/></svg><svg fill="none" viewBox="0 0 24 24" id="sprite--calendar" xmlns="http://www.w3.org/2000/svg"><path d="M4.75 8.75a2 2 0 012-2h10.5a2 2 0 012 2v8.5a2 2 0 01-2 2H6.75a2 2 0 01-2-2v-8.5zm3.25-4v3.5m8-3.5v3.5m-8.25 2.5h8.5" stroke="#ACAFF3" stroke-width="1.5" stroke-linecap="round" stroke-linejoin="round"/></svg><svg fill="none" viewBox="0 0 24 24" id="sprite--chart" xmlns="http://www.w3.org/2000/svg"><path d="M5.75 19.25h.5a1 1 0 001-1v-2.5a1 1 0 00-1-1h-.5a1 1 0 00-1 1v2.5a1 1 0 001 1zm12 0h.5a1 1 0 001-1v-5.5a1 1 0 00-1-1h-.5a1 1 0 00-1 1v5.5a1 1 0 001 1zm-6 0h.5a1 1 0 001-1V5.75a1 1 0 00-1-1h-.5a1 1 0 00-1 1v12.5a1 1 0 001 1z"/></svg><svg fill="none" viewBox="0 0 24 24" id="sprite--exit" xmlns="http://www.w3.org/2000/svg"><path d="M15.75 8.75l3.5 3.25-3.5 3.25M19 12h-8.25m4.5-7.25h-8.5a2 2 0 00-2 2v10.5a2 2 0 002 2h8.5" stroke="#ACAFF3" stroke-width="1.5" stroke-linecap="round" stroke-linejoin="round"/></svg><svg fill="none" viewBox="0 0 24 24" id="sprite--football" xmlns="http://www.w3.org/2000/svg"><path d="M12 0C5.373 0 0 5.373 0 12s5.373 12 12 12 12-5.373 12-12C23.993 5.376 18.624.007 12 0zm9.293 5.756l-.831 3.535-4.382 1.46-3.68-2.943V3.471l4.2-1.68a11.268 11.268 0 014.693 3.965zm.067 12.382l-3.967.627-2.16-2.854 1.1-4.4 4.333-1.444 2.482 2.979a11.127 11.127 0 01-1.788 5.092zm-14.736.63l-3.984-.63a11.129 11.129 0 01-1.788-5.094l2.48-2.978 4.333 1.444 1.1 4.402-2.14 2.855zM.804 11.85a11.128 11.128 0 011.312-5.112l.649 2.76L.804 11.85zm8.708 3.75l-1.06-4.249L12 8.512l3.55 2.84-1.062 4.248H9.512zm11.723-6.102l.649-2.76a11.127 11.127 0 011.313 5.111l-1.962-2.351zM15.51 1.366L12 2.77 8.472 1.372a11.159 11.159 0 017.037-.006zM7.381 1.8L11.6 3.472v4.336l-3.68 2.944-4.382-1.46-.831-3.536A11.27 11.27 0 017.38 1.8zM3.308 19.053l3.252.514 1.966 3.08a11.237 11.237 0 01-5.218-3.593zm6.365 3.902l-2.387-3.737L9.4 16.4h5.2l2.144 2.832-2.08 3.645c-1.636.403-3.342.43-4.99.08v-.002zm6.102-.411l1.705-2.984 3.213-.507a11.244 11.244 0 01-4.918 3.49z" fill="#222"/></svg><svg fill="none" viewBox="0 0 24 24" id="sprite--history" xmlns="http://www.w3.org/2000/svg"><path d="M4.75 12.375a7.25 7.25 0 101.202-4m0 0v-4m0 4H10" stroke="#ACAFF3" stroke-width="1.5"/><path d="M12 8.375v4l2 2" stroke="#ACAFF3" stroke-width="1.5"/></svg><svg viewBox="0 0 32 32" id="sprite--logo-icon" xmlns="http://www.w3.org/2000/svg"><path d="M27.607 0L32 4.393 20.393 16 16 11.607 27.607 0zM4.393 32L0 27.607 11.607 16 16 20.393 4.393 32zM0 4.393L4.393 0 16 11.607 11.607 16 0 4.393zm32 23.214L27.607 32 16 20.393 20.393 16 32 27.607z"/></svg><svg viewBox="0 0 135 13" id="sprite--logo-text" xmlns="http://www.w3.org/2000/svg"><path d="M7.592 4.354a.418.418 0 01-.28-.105.418.418 0 01-.105-.28v-.123a.635.635 0 00-.21-.49.635.635 0 00-.49-.21h-3.41a.635.635 0 00-.49.21.663.663 0 00-.193.49v5.808c0 .198.064.367.193.507a.663.663 0 00.49.193h3.41a.691.691 0 00.7-.7V9.53c0-.104.035-.192.105-.262a.385.385 0 01.28-.122H9.22c.105 0 .193.04.262.122.082.07.123.158.123.262v.123c0 .431-.082.834-.245 1.207a3.164 3.164 0 01-1.644 1.644 2.978 2.978 0 01-1.207.245H3.096a3.06 3.06 0 01-2.186-.91 3.165 3.165 0 01-.665-.98A2.978 2.978 0 010 9.655V3.846c0-.431.082-.833.245-1.207.163-.373.385-.7.665-.98s.606-.5.98-.664A3.06 3.06 0 013.095.75h3.412c.431 0 .833.082 1.207.245a3.165 3.165 0 011.644 1.644c.163.374.245.776.245 1.207v.123c0 .105-.04.198-.123.28a.356.356 0 01-.262.105H7.592zM25.125 12.4c.047.094.047.175 0 .245-.046.07-.122.105-.227.105h-1.872a.565.565 0 01-.315-.105.694.694 0 01-.21-.245L20.49 7.957h-2.38v4.408c0 .105-.04.198-.122.28a.356.356 0 01-.262.105H16.08a.418.418 0 01-.28-.105.418.418 0 01-.105-.28V1.135c0-.105.035-.192.105-.262a.385.385 0 01.28-.123h6.123c.431 0 .834.082 1.207.245a3.166 3.166 0 011.644 1.644c.164.374.245.776.245 1.207v1.015c0 .35-.058.688-.175 1.014a3.123 3.123 0 01-.454.875 3.005 3.005 0 01-.718.665 2.988 2.988 0 01-.892.42l2.064 4.565zm-2.921-6.84a.691.691 0 00.7-.7V3.847a.635.635 0 00-.21-.49.635.635 0 00-.49-.21H18.11v2.415h4.094zM37.9.768c.432 0 .834.081 1.207.245a3.165 3.165 0 011.645 1.644c.163.373.245.77.245 1.19V9.67c0 .42-.082.817-.245 1.19a3.164 3.164 0 01-1.644 1.644 2.978 2.978 0 01-1.208.245h-3.41c-.431 0-.834-.082-1.207-.245a3.164 3.164 0 01-1.644-1.644 2.935 2.935 0 01-.245-1.19V3.846c0-.42.081-.816.245-1.19a3.164 3.164 0 011.644-1.643A2.979 2.979 0 0134.49.768h3.41zm.7 3.078a.635.635 0 00-.21-.49.663.663 0 00-.49-.192h-3.41a.724.724 0 00-.507.193.663.663 0 00-.193.49V9.67a.66.66 0 00.193.49c.14.129.309.193.507.193h3.41a.663.663 0 00.49-.193.635.635 0 00.21-.49V3.846zm16.064.508a.418.418 0 01-.28-.105.418.418 0 01-.105-.28v-.123a.663.663 0 00-.193-.49.635.635 0 00-.49-.21h-3.428c-.187 0-.35.07-.49.21a.663.663 0 00-.192.49v1.015c0 .198.064.367.192.507.14.128.303.193.49.193h3.429c.42 0 .816.081 1.19.245.372.163.699.384.979.664s.501.607.665.98c.163.373.244.77.244 1.19v1.014c0 .431-.081.834-.244 1.207-.164.373-.385.7-.665.98s-.607.501-.98.664a2.94 2.94 0 01-1.19.245h-3.428c-.42 0-.816-.082-1.19-.245a3.164 3.164 0 01-1.644-1.644 2.977 2.977 0 01-.245-1.207V9.53c0-.104.035-.192.105-.262a.386.386 0 01.28-.122H49.1a.33.33 0 01.262.122c.082.07.123.158.123.262v.123c0 .198.064.367.192.507a.7.7 0 00.49.193h3.429a.664.664 0 00.49-.193.724.724 0 00.192-.507V8.639a.663.663 0 00-.193-.49.664.664 0 00-.49-.192h-3.428c-.42 0-.816-.082-1.19-.245a3.166 3.166 0 01-.98-.664 3.059 3.059 0 01-.91-2.187V3.846c.001-.431.083-.833.246-1.207.163-.373.385-.7.665-.98s.606-.5.98-.664A2.936 2.936 0 0150.167.75h3.429c.42 0 .816.082 1.19.245a3.166 3.166 0 011.644 1.644c.163.374.244.776.244 1.207v.123a.418.418 0 01-.104.28.356.356 0 01-.263.105h-1.644zm15.696 0a.418.418 0 01-.28-.105.418.418 0 01-.105-.28v-.123a.663.663 0 00-.192-.49.635.635 0 00-.49-.21h-3.429c-.186 0-.35.07-.49.21a.663.663 0 00-.192.49v1.015c0 .198.064.367.192.507.14.128.304.193.49.193h3.429c.42 0 .816.081 1.19.245.373.163.7.384.98.664.279.28.5.607.664.98.163.373.245.77.245 1.19v1.014c0 .431-.082.834-.245 1.207a3.164 3.164 0 01-1.645 1.644 2.94 2.94 0 01-1.19.245h-3.428c-.42 0-.816-.082-1.19-.245a3.164 3.164 0 01-1.644-1.644 2.977 2.977 0 01-.245-1.207V9.53c0-.104.035-.192.105-.262a.385.385 0 01.28-.122h1.627c.105 0 .193.04.263.122.081.07.122.158.122.262v.123c0 .198.064.367.192.507.14.129.304.193.49.193h3.429a.664.664 0 00.49-.193.724.724 0 00.192-.507V8.639a.663.663 0 00-.192-.49.664.664 0 00-.49-.192h-3.429c-.42 0-.816-.082-1.19-.245a3.165 3.165 0 01-1.644-1.644 3.059 3.059 0 01-.245-1.207V3.846c0-.431.082-.833.245-1.207A3.166 3.166 0 0164.674.995c.374-.163.77-.245 1.19-.245h3.429c.42 0 .816.082 1.19.245a3.164 3.164 0 011.644 1.644c.163.374.245.776.245 1.207v.123a.418.418 0 01-.105.28.356.356 0 01-.263.105H70.36zM84.99.75c.419 0 .816.082 1.189.245a3.166 3.166 0 011.644 1.644c.163.374.245.776.245 1.207v1.015c0 .361-.058.7-.175 1.014a3.52 3.52 0 01-.472.875c.198.268.355.56.472.875.117.315.175.653.175 1.014v1.015c0 .431-.082.834-.245 1.207a3.164 3.164 0 01-1.644 1.644c-.373.164-.77.245-1.19.245h-6.14a.356.356 0 01-.262-.105.418.418 0 01-.105-.28V1.135c0-.105.035-.192.105-.262a.331.331 0 01.262-.123h6.14zm-4.112 4.793h4.111a.642.642 0 00.472-.192.635.635 0 00.21-.49V3.846a.635.635 0 00-.21-.49.616.616 0 00-.472-.21h-4.11v2.397zm4.793 3.096a.635.635 0 00-.21-.49.642.642 0 00-.472-.192h-4.11v2.397h4.11a.642.642 0 00.472-.193.69.69 0 00.21-.507V8.639zM100.598.75c.105 0 .205.035.298.105a.52.52 0 01.21.245l2.519 6.262c.035.094.064.216.087.368.035.14.053.262.053.367v4.268a.385.385 0 01-.123.28.355.355 0 01-.262.105h-1.644a.417.417 0 01-.28-.105.418.418 0 01-.105-.28v-2.011h-4.793v2.011a.385.385 0 01-.123.28.356.356 0 01-.262.105h-1.627a.418.418 0 01-.28-.105.418.418 0 01-.105-.28V8.097c0-.105.011-.227.035-.367.035-.152.07-.274.105-.368L96.802 1.1a.694.694 0 01.21-.245.564.564 0 01.315-.105h3.271zm-3.953 7.207h4.618l-1.924-4.81h-.77l-1.924 4.81zm22.291 4.793h-8.187a.42.42 0 01-.28-.105.417.417 0 01-.104-.28V1.135c0-.105.034-.192.104-.262a.386.386 0 01.28-.123h1.627c.105 0 .193.04.263.123.081.07.122.157.122.262v9.219h6.175c.105 0 .193.04.263.122.07.07.105.157.105.262v1.627a.418.418 0 01-.105.28.358.358 0 01-.263.105zm15.697 0h-8.187a.417.417 0 01-.28-.105.418.418 0 01-.105-.28V1.135c0-.105.035-.192.105-.262a.384.384 0 01.28-.123h1.627a.33.33 0 01.262.123.33.33 0 01.122.262v9.219h6.176a.33.33 0 01.262.122c.07.07.105.157.105.262v1.627a.418.418 0 01-.105.28.355.355 0 01-.262.105z"/></svg><svg fill="none" viewBox="0 0 24 24" id="sprite--mail" xmlns="http://www.w3.org/2000/svg"><path d="M4.75 7.75a2 2 0 012-2h10.5a2 2 0 012 2v8.5a2 2 0 01-2 2H6.75a2 2 0 01-2-2v-8.5z"/><path d="M5.5 6.5l6.5 5.75 6.5-5.75"/></svg><svg viewBox="0 0 14 14" id="sprite--pen" xmlns="http://www.w3.org/2000/svg"><path d="M2.77 11.035l2.48-.583 5.42-5.42a.583.583 0 000-.826L9.6 3.136a.583.583 0 00-.825 0l-5.42 5.42-.584 2.48zm8.46.001H8.02"/></svg><svg fill="none" viewBox="0 0 24 24" id="sprite--phone" xmlns="http://www.w3.org/2000/svg"><path d="M8.893 4.75H6.068c-.728 0-1.318.59-1.318 1.318 0 7.28 5.902 13.182 13.182 13.182.728 0 1.318-.59 1.318-1.318v-2.825l-3.107-2.071-1.611 1.61c-.28.28-.698.368-1.05.186a11.093 11.093 0 01-2.518-1.796 8.726 8.726 0 01-1.836-2.542c-.16-.34-.067-.733.199-1l1.637-1.637L8.893 4.75z"/></svg><svg fill="none" viewBox="0 0 24 24" id="sprite--playmarket" xmlns="http://www.w3.org/2000/svg"><path d="M15.248 10.983L4.903.61l13.162 7.556-2.817 2.817zM2.203 0c-.61.319-1.017.9-1.017 1.655V22.34c0 .755.408 1.336 1.017 1.655l12.029-12L2.203 0zm19.931 10.575l-2.76-1.598L16.293 12l3.08 3.023 2.816-1.598c.844-.67.844-2.18-.056-2.85zM4.904 23.391l13.162-7.556-2.817-2.817L4.903 23.39z" fill="#fff"/></svg><svg fill="none" viewBox="0 0 86 30" id="sprite--playmarket-text" xmlns="http://www.w3.org/2000/svg"><path d="M6.87 3.772c0 .932-.283 1.678-.84 2.235-.642.66-1.477.992-2.501.992-.979 0-1.814-.338-2.5-1.003C.343 5.32 0 4.492 0 3.499c0-.992.343-1.82 1.03-2.49C1.714.338 2.55 0 3.528 0c.487 0 .951.1 1.395.283.441.186.801.437 1.062.747l-.592.589c-.455-.53-1.074-.79-1.865-.79-.714 0-1.333.245-1.858.74-.52.497-.78 1.14-.78 1.93s.26 1.439.78 1.936a2.64 2.64 0 001.858.74c.757 0 1.395-.25 1.897-.746.332-.328.52-.78.57-1.357H3.528v-.807h3.29c.04.174.052.343.052.507zM12.089.976H8.998v2.121h2.786v.807H8.998v2.12h3.09v.822H8.124V.154h3.966v.822zm3.683 5.87h-.875V.976h-1.896V.154h4.669v.822h-1.898v5.87zm5.275 0V.154h.874v6.692h-.874zm4.746 0h-.868V.976h-1.903V.154h4.674v.822h-1.903v5.87zm10.741-.86c-.67.676-1.5 1.014-2.49 1.014-.995 0-1.825-.338-2.494-1.014-.669-.676-1.002-1.505-1.002-2.485 0-.981.333-1.81 1.002-2.486C32.22.34 33.048.001 34.044.001c.985 0 1.815.338 2.484 1.02.674.681 1.007 1.504 1.007 2.48 0 .98-.333 1.81-1.001 2.485zm-4.337-.561a2.52 2.52 0 001.847.752c.726 0 1.344-.251 1.843-.752.502-.501.757-1.144.757-1.924s-.255-1.424-.757-1.925c-.499-.5-1.117-.752-1.843-.752-.73 0-1.343.251-1.847.752-.503.501-.758 1.145-.758 1.925s.255 1.423.758 1.924zm6.564 1.421V.154h1.062l3.302 5.205h.039l-.039-1.286V.154H44v6.692h-.912l-3.458-5.46h-.038l.038 1.291v4.17h-.868zM27.485 17.698c-2.383 0-4.329 1.784-4.329 4.246 0 2.441 1.946 4.244 4.329 4.244 2.387 0 4.334-1.803 4.334-4.244 0-2.462-1.947-4.246-4.334-4.246zm0 6.818c-1.307 0-2.432-1.061-2.432-2.572 0-1.531 1.125-2.575 2.432-2.575s2.437 1.044 2.437 2.575c0 1.51-1.13 2.572-2.437 2.572zm-9.445-6.818c-2.388 0-4.33 1.784-4.33 4.246 0 2.441 1.942 4.244 4.33 4.244 2.386 0 4.329-1.803 4.329-4.244 0-2.462-1.943-4.246-4.33-4.246zm0 6.818c-1.309 0-2.437-1.061-2.437-2.572 0-1.531 1.128-2.575 2.437-2.575 1.307 0 2.432 1.044 2.432 2.575 0 1.51-1.125 2.572-2.432 2.572zM6.8 19v1.804h4.379c-.129 1.008-.47 1.75-.996 2.266-.639.624-1.634 1.316-3.383 1.316a4.768 4.768 0 01-4.804-4.79A4.768 4.768 0 016.8 14.802c1.457 0 2.517.56 3.3 1.286l1.292-1.271C10.297 13.79 8.842 13 6.8 13 3.105 13 0 15.958 0 19.594s3.105 6.594 6.8 6.594c1.997 0 3.497-.644 4.677-1.851 1.208-1.19 1.585-2.861 1.585-4.211 0-.42-.036-.805-.1-1.127H6.8zm45.96 1.399c-.357-.95-1.456-2.7-3.695-2.7-2.22 0-4.067 1.72-4.067 4.246 0 2.378 1.829 4.244 4.28 4.244a4.293 4.293 0 003.596-1.881l-1.471-.965c-.49.706-1.159 1.174-2.125 1.174-.96 0-1.649-.433-2.09-1.286l5.77-2.35-.198-.482zm-5.884 1.413a2.346 2.346 0 012.254-2.475c.753 0 1.392.37 1.605.9l-3.859 1.575zm-4.69 4.119h1.897V13.453h-1.897V25.93zm-3.107-7.287h-.063c-.426-.496-1.239-.945-2.268-.945-2.161 0-4.137 1.866-4.137 4.26 0 2.379 1.976 4.23 4.137 4.23 1.03 0 1.842-.453 2.268-.964h.063v.609c0 1.623-.88 2.495-2.302 2.495-1.16 0-1.878-.823-2.175-1.516l-1.65.678c.476 1.125 1.735 2.51 3.825 2.51 2.224 0 4.1-1.288 4.1-4.42v-7.624H39.08v.687zm-2.17 5.873c-1.306 0-2.4-1.076-2.4-2.559 0-1.496 1.094-2.588 2.4-2.588 1.29 0 2.305 1.092 2.305 2.588 0 1.483-1.016 2.56-2.304 2.56zm24.732-11.063h-4.537V25.93h1.892v-4.728h2.645c2.1 0 4.161-1.496 4.161-3.875 0-2.378-2.065-3.874-4.161-3.874zm.05 6.014h-2.695V15.19h2.694a2.182 2.182 0 012.22 2.138c0 .966-.807 2.14-2.22 2.14zm11.694-1.793c-1.367 0-2.788.594-3.373 1.91l1.679.693c.361-.693 1.026-.917 1.728-.917.981 0 1.977.58 1.992 1.604v.131c-.342-.194-1.075-.483-1.977-.483-1.808 0-3.65.98-3.65 2.808 0 1.671 1.48 2.748 3.146 2.748 1.273 0 1.975-.565 2.416-1.223h.065v.965h1.827v-4.786c0-2.212-1.679-3.45-3.853-3.45zm-.228 6.837c-.62 0-1.481-.302-1.481-1.056 0-.966 1.075-1.337 2.005-1.337.834 0 1.224.181 1.73.42-.148 1.155-1.159 1.973-2.254 1.973zm10.738-6.564l-2.174 5.409h-.065l-2.248-5.409h-2.04l3.378 7.559-1.928 4.206h1.977L86 17.947h-2.105zM66.842 25.93h1.897V13.453h-1.897V25.93z" fill="#fff"/></svg><svg fill="none" viewBox="0 0 24 24" id="sprite--report" xmlns="http://www.w3.org/2000/svg"><path d="M9 6.75H7.75a2 2 0 00-2 2v8.5a2 2 0 002 2h8.5a2 2 0 002-2v-8.5a2 2 0 00-2-2H15" stroke="#ACAFF3" stroke-width="1.5" stroke-linecap="round" stroke-linejoin="round"/><path d="M14 8.25h-4a1 1 0 01-1-1v-1.5a1 1 0 011-1h4a1 1 0 011 1v1.5a1 1 0 01-1 1zm-4.25 4h4.5m-4.5 3h4.5" stroke="#ACAFF3" stroke-width="1.5" stroke-linecap="round" stroke-linejoin="round"/></svg><svg viewBox="0 0 26 26" id="sprite--social-fb" xmlns="http://www.w3.org/2000/svg"><path d="M25.5 13C25.5 6.098 19.902.5 13 .5S.5 6.098.5 13 6.098 25.5 13 25.5l.22-.003v-9.73h-2.686v-3.13h2.686v-2.303c0-2.672 1.63-4.125 4.013-4.125 1.141 0 2.122.085 2.408.123v2.791h-1.643c-1.297 0-1.548.616-1.548 1.52v1.994h3.1l-.404 3.13H16.45v9.25C21.675 23.52 25.5 18.706 25.5 13z"/></svg><svg viewBox="0 0 26 26" id="sprite--social-inst" xmlns="http://www.w3.org/2000/svg"><path d="M15.56 13a2.56 2.56 0 11-5.12 0 2.56 2.56 0 015.12 0z"/><path fill-rule="evenodd" clip-rule="evenodd" d="M18.585 8.775a2.22 2.22 0 00-.536-.824 2.218 2.218 0 00-.824-.536c-.252-.098-.631-.215-1.33-.247-.755-.034-.982-.041-2.895-.041s-2.14.007-2.895.041c-.698.032-1.078.149-1.33.247a2.217 2.217 0 00-.824.536 2.221 2.221 0 00-.536.824c-.098.252-.215.632-.247 1.33-.034.755-.041.982-.041 2.895s.007 2.14.041 2.895c.032.699.149 1.078.247 1.33.115.312.298.593.536.824.231.238.512.421.824.536.252.098.632.215 1.33.247.755.034.982.041 2.895.041s2.14-.007 2.895-.041c.699-.032 1.078-.149 1.33-.247a2.372 2.372 0 001.36-1.36c.098-.252.215-.631.247-1.33.034-.755.041-.982.041-2.895s-.007-2.14-.041-2.895c-.032-.698-.149-1.078-.247-1.33zM13 16.679a3.679 3.679 0 110-7.358 3.679 3.679 0 010 7.358zm3.825-6.644a.86.86 0 110-1.72.86.86 0 010 1.72z"/><path fill-rule="evenodd" clip-rule="evenodd" d="M.5 13C.5 6.098 6.098.5 13 .5S25.5 6.098 25.5 13 19.902 25.5 13 25.5.5 19.902.5 13zm19.3 4.702c.178-.457.3-.979.334-1.743.035-.765.044-1.01.044-2.959 0-1.95-.009-2.194-.043-2.96-.035-.763-.157-1.285-.334-1.742a3.517 3.517 0 00-.828-1.27 3.52 3.52 0 00-1.271-.829c-.457-.177-.979-.299-1.743-.333-.765-.035-1.01-.044-2.959-.044-1.95 0-2.194.009-2.96.044-.763.034-1.285.156-1.742.333-.479.18-.912.463-1.27.828a3.516 3.516 0 00-.829 1.271c-.177.457-.299.979-.333 1.743-.036.765-.044 1.01-.044 2.959 0 1.95.008 2.194.044 2.96.034.763.156 1.285.333 1.742.18.478.463.912.828 1.27.359.366.792.649 1.272.829.456.177.978.299 1.742.333.765.035 1.01.044 2.96.044 1.949 0 2.193-.009 2.958-.044.764-.035 1.286-.156 1.743-.333a3.67 3.67 0 002.099-2.1z"/></svg><svg viewBox="0 0 26 26" id="sprite--social-link" xmlns="http://www.w3.org/2000/svg"><path fill-rule="evenodd" clip-rule="evenodd" d="M13 25.5c6.904 0 12.5-5.596 12.5-12.5S19.904.5 13 .5.5 6.096.5 13 6.096 25.5 13 25.5zm4.496-16.996a3.429 3.429 0 00-4.85 0l-.863.863a.5.5 0 10.708.707l.863-.863a2.429 2.429 0 113.434 3.435l-.862.863a.5.5 0 10.707.707l.863-.862a3.429 3.429 0 000-4.85zm-2.59 3.296a.5.5 0 10-.706-.707L11.093 14.2a.5.5 0 00.707.707l3.107-3.107zm-4.832.69a.5.5 0 10-.707-.707l-.863.864a3.429 3.429 0 104.85 4.849l.863-.863a.5.5 0 00-.708-.707l-.863.863a2.429 2.429 0 01-3.435-3.435l.863-.863z"/></svg><svg viewBox="0 0 26 26" id="sprite--social-telegram" xmlns="http://www.w3.org/2000/svg"><path fill-rule="evenodd" clip-rule="evenodd" d="M25.5 13c0 6.903-5.597 12.5-12.5 12.5S.5 19.903.5 13 6.097.5 13 .5 25.5 6.097 25.5 13zM13.448 9.728c-1.216.505-3.646 1.552-7.29 3.14-.591.235-.902.465-.93.69-.048.382.43.532 1.077.735.089.028.18.056.274.087.639.207 1.497.45 1.943.46.405.008.857-.159 1.356-.5 3.404-2.3 5.162-3.46 5.272-3.486.078-.018.186-.04.26.025.072.065.065.188.058.221-.048.201-1.917 1.94-2.886 2.84a29.3 29.3 0 00-.56.525c-.097.1-.197.197-.293.29-.594.571-1.037 1 .025 1.7.51.337.919.615 1.326.892.445.303.889.605 1.464.982.146.096.285.195.422.292.517.37.983.7 1.558.649.333-.032.68-.345.854-1.282.414-2.214 1.228-7.01 1.417-8.987a2.252 2.252 0 00-.021-.492.527.527 0 00-.18-.338c-.148-.122-.38-.148-.484-.146-.47.008-1.19.26-4.662 1.703z"/></svg><svg viewBox="0 0 26 26" id="sprite--social-vk" xmlns="http://www.w3.org/2000/svg"><path d="M13 .5C6.096.5.5 6.096.5 13S6.096 25.5 13 25.5 25.5 19.904 25.5 13 19.904.5 13 .5zm4.807 14.103s1.106 1.091 1.378 1.598c.008.01.012.02.014.026.11.186.137.33.082.438-.09.18-.403.269-.51.276h-1.953c-.136 0-.42-.035-.763-.272-.265-.185-.525-.488-.779-.784-.379-.44-.707-.82-1.038-.82a.396.396 0 00-.123.02c-.25.08-.57.437-.57 1.388 0 .297-.235.467-.4.467h-.895c-.305 0-1.892-.107-3.298-1.59C7.23 13.534 5.68 9.89 5.668 9.857c-.098-.236.104-.362.324-.362h1.973c.263 0 .349.16.409.302.07.165.328.823.751 1.562.686 1.206 1.107 1.696 1.444 1.696a.39.39 0 00.181-.047c.44-.245.358-1.814.338-2.14 0-.06 0-.701-.226-1.009-.162-.222-.436-.307-.603-.338a.716.716 0 01.26-.22c.301-.151.846-.173 1.386-.173h.3c.587.007.738.045.95.099.43.102.439.38.401 1.329-.012.27-.023.574-.023.934 0 .078-.004.161-.004.25-.013.483-.029 1.03.312 1.256a.282.282 0 00.149.043c.118 0 .475 0 1.441-1.657a12.64 12.64 0 00.775-1.66c.02-.033.077-.137.144-.178a.346.346 0 01.162-.037h2.319c.252 0 .425.037.458.135.057.155-.01.628-1.069 2.061l-.473.624c-.96 1.258-.96 1.321.06 2.276z"/></svg><svg viewBox="0 0 26 26" id="sprite--social-whatsup" xmlns="http://www.w3.org/2000/svg"><path fill-rule="evenodd" clip-rule="evenodd" d="M13.167 25.667c6.903 0 12.5-5.597 12.5-12.5 0-6.904-5.597-12.5-12.5-12.5-6.904 0-12.5 5.596-12.5 12.5 0 6.903 5.596 12.5 12.5 12.5zM16.059 6.23a7.42 7.42 0 012.422 1.617 7.388 7.388 0 012.186 5.258c-.002 4.098-3.353 7.433-7.469 7.433h-.003a7.499 7.499 0 01-3.57-.905l-3.958 1.034 1.059-3.851a7.405 7.405 0 01-.997-3.716C5.731 9 9.082 5.667 13.2 5.667a7.45 7.45 0 012.86.563zm-2.863 13.053h.002c3.421 0 6.206-2.772 6.207-6.178a6.116 6.116 0 00-1.816-4.371 6.17 6.17 0 00-4.388-1.812c-3.425 0-6.21 2.771-6.21 6.178a6.145 6.145 0 00.949 3.288l.147.233-.627 2.28 2.35-.614.226.134a6.218 6.218 0 003.16.862zm2.132-5.232c.171.062 1.088.51 1.275.604l.102.05c.13.063.219.105.256.168.047.078.047.45-.109.884-.155.434-.9.83-1.26.882a2.575 2.575 0 01-1.175-.073c-.27-.086-.618-.2-1.064-.392-1.751-.753-2.934-2.443-3.156-2.76l-.032-.044-.002-.004c-.102-.135-.76-1.012-.76-1.918 0-.856.422-1.303.616-1.51l.037-.04a.687.687 0 01.498-.231 8.06 8.06 0 01.398.007c.11-.001.245-.003.379.317l.209.505c.16.387.335.812.366.874.048.093.079.201.016.325l-.027.054c-.046.095-.08.164-.16.256l-.095.114c-.064.078-.128.156-.184.211-.094.093-.191.193-.082.38a5.6 5.6 0 001.038 1.286 4.81 4.81 0 001.378.867c.051.022.093.04.123.055.186.093.295.078.404-.046.11-.125.467-.543.592-.728.124-.186.248-.155.419-.093z"/></svg><svg viewBox="0 0 26 26" id="sprite--social-youtube" xmlns="http://www.w3.org/2000/svg"><path d="M15.594 13l-4.245 2.594v-5.188L15.594 13z"/><path fill-rule="evenodd" clip-rule="evenodd" d="M.5 13C.5 6.098 6.098.5 13 .5S25.5 6.098 25.5 13 19.902 25.5 13 25.5.5 19.902.5 13zm19.989 3.77c.322-1.222.322-3.757.322-3.757s.013-2.548-.322-3.77a1.957 1.957 0 00-1.377-1.377C17.89 7.53 13 7.53 13 7.53s-4.89 0-6.112.322c-.656.18-1.197.72-1.377 1.39C5.189 10.465 5.189 13 5.189 13s0 2.548.322 3.757c.18.67.708 1.197 1.377 1.377 1.235.335 6.112.335 6.112.335s4.89 0 6.112-.322a1.957 1.957 0 001.377-1.377z"/></svg><svg fill="none" viewBox="0 0 6 11" id="sprite--table-arrow" xmlns="http://www.w3.org/2000/svg"><path d="M2.654 1.1a.4.4 0 01.693 0l1.905 3.3a.4.4 0 01-.347.6h-3.81a.4.4 0 01-.347-.6l1.906-3.3z" fill="#909090"/><path d="M3.346 9.9a.4.4 0 01-.692 0L.748 6.6a.4.4 0 01.347-.6h3.81a.4.4 0 01.347.6L3.346 9.9z" fill="#5A60E7"/></svg><svg fill="none" viewBox="0 0 24 24" id="sprite--user" xmlns="http://www.w3.org/2000/svg"><path d="M12 11.25a3.25 3.25 0 100-6.5 3.25 3.25 0 000 6.5zm-5.152 8h10.305c1.142 0 2.021-.982 1.488-1.992-.784-1.485-2.573-3.258-6.64-3.258-4.069 0-5.857 1.773-6.642 3.258-.533 1.01.347 1.992 1.489 1.992z" stroke="#ACAFF3" stroke-width="1.5" stroke-linecap="round" stroke-linejoin="round"/></svg></svg>